<?xml version="1.0" standalone="yes"?>

<svg version="1.1" viewBox="0.0 0.0 264.9422572178478 100.0" fill="none" stroke="none" stroke-linecap="square" stroke-miterlimit="10" xmlns="http://www.w3.org/2000/svg" xmlns:xlink="http://www.w3.org/1999/xlink"><clipPath id="p.0"><path d="m0 0l264.94226 0l0 100.0l-264.94226 0l0 -100.0z" clip-rule="nonzero"></path></clipPath><g clip-path="url(#p.0)"><path fill="#000000" fill-opacity="0.0" d="m0 0l264.94226 0l0 100.0l-264.94226 0z" fill-rule="nonzero"></path><path fill="#000000" fill-opacity="0.0" d="m4.0682416 6.7795277l955.937 0l0 277.95273l-955.937 0z" fill-rule="nonzero"></path><path fill="#000000" d="m30.505741 34.110153l0 4.453125q-4.484375 0 -6.6875 2.1875q-2.203125 2.171875 -2.203125 5.515625l0 15.5l8.953125 0l0 4.4375l-8.953125 0l0 11.015625l-4.703125 0l0 -30.953125q0 -5.3125 3.59375 -8.734375q3.59375 -3.421875 10.0 -3.421875zm33.924854 11.65625l0 31.453125l-4.703129 0l0.375 -4.421875q0.171875 0.515625 -3.75 2.828125q-3.90625 2.296875 -8.359375 2.296875q-6.8125 0 -11.6875 -4.828125q-4.875 -4.84375 -4.875 -11.59375q0 -6.765625 4.875 -11.59375q4.875 -4.84375 11.6875 -4.84375q4.453125 0 8.546875 2.375q4.109375 2.375 3.75 3.015625l-0.5625 -4.6875l4.703129 0zm-28.296879 15.796875q0 4.828125 3.546875 8.375q3.546875 3.53125 8.390625 3.53125q4.859375 0 8.3125 -3.53125q3.46875 -3.546875 3.46875 -8.40625q0 -4.875 -3.5 -8.453125q-3.484375 -3.578125 -8.296875 -3.578125q-4.8125 0 -8.375 3.609375q-3.546875 3.609375 -3.546875 8.453125zm33.322193 15.65625l0 -50.65625l4.703125 0l-0.421875 23.656248q-0.203125 -0.5625 3.796875 -2.859375q4.015625 -2.296875 8.34375 -2.296875q6.890625 0 11.71875 4.84375q4.84375 4.828125 4.84375 11.59375q0 6.75 -4.84375 11.59375q-4.828125 4.828125 -11.71875 4.828125q-4.1875 0 -8.15625 -2.25q-3.953125 -2.265625 -3.875 -2.75l0.3125 4.296875l-4.703125 0zm4.578125 -15.65625q0 4.828125 3.53125 8.375q3.546875 3.53125 8.40625 3.53125q4.859375 0 8.3125 -3.53125q3.453125 -3.546875 3.453125 -8.40625q0 -4.875 -3.484375 -8.453125q-3.484375 -3.578125 -8.3125 -3.578125q-4.8125 0 -8.359375 3.609375q-3.546875 3.609375 -3.546875 8.453125zm51.32219 -7.34375q-4.6875 -4.71875 -7.53125 -4.71875q-2.84375 0 -5.046875 2.1875q-2.203125 2.171875 -2.203125 5.0l0 20.53125l-4.703125 0l0 -31.453125l4.703125 0l-0.71875 3.15625q-0.453125 -0.671875 2.296875 -2.265625q2.75 -1.59375 6.15625 -1.59375q3.40625 0 7.046875 2.703125l0 6.453125zm8.318825 -8.390625l0 31.390625l-4.703125 0l0 -31.390625l4.703125 0zm-2.359375 -4.390625q-3.171875 0 -3.171875 -3.046875q0 -3.0625 3.171875 -3.0625q3.1875 0 3.1875 3.0625q0 3.046875 -3.1875 3.046875z" fill-rule="nonzero"></path><path fill="#ff4136" d="m165.1764 77.92265l-0.703125 0q-6.96875 0 -12.96875 -3.640625q-6.0 -3.640625 -9.46875 -9.65625q-3.46875 -6.03125 -3.46875 -12.859375q0 -10.71875 7.75 -18.4375q7.75 -7.718748 18.546875 -7.718748q7.203125 0 14.3125 4.140625l0 5.640623q-7.75 -5.281248 -14.3125 -5.281248q-8.859375 0 -15.203125 6.374998q-6.328125 6.359375 -6.328125 15.25q0 8.890625 6.328125 15.28125q6.34375 6.390625 15.203125 6.390625q6.5625 0 14.3125 -5.28125l0 5.625q-6.765625 4.171875 -14.0 4.171875z" fill-rule="nonzero"></path><path fill="#000000" d="m215.59833 45.766403l0 31.453125l-4.703125 0l0.375 -4.421875q0.171875 0.515625 -3.75 2.828125q-3.90625 2.296875 -8.359375 2.296875q-6.8125 0 -11.6875 -4.828125q-4.875 -4.84375 -4.875 -11.59375q0 -6.765625 4.875 -11.59375q4.875 -4.84375 11.6875 -4.84375q4.453125 0 8.546875 2.375q4.109375 2.375 3.75 3.015625l-0.5625 -4.6875l4.703125 0zm-28.296875 15.796875q0 4.828125 3.546875 8.375q3.546875 3.53125 8.390625 3.53125q4.859375 0 8.3125 -3.53125q3.46875 -3.546875 3.46875 -8.40625q0 -4.875 -3.5 -8.453125q-3.484375 -3.578125 -8.296875 -3.578125q-4.8125 0 -8.375 3.609375q-3.546875 3.609375 -3.546875 8.453125zm38.025314 15.65625l-4.703125 0l0 -31.453125l4.703125 0l0 1.53125q1.109375 -2.234375 9.8125 -2.234375q5.9375 0 9.96875 4.109375q4.03125 4.09375 4.03125 9.953125l0 18.09375l-4.71875 0l0 -18.09375q0 -3.890625 -2.71875 -6.75q-2.71875 -2.875 -6.578125 -2.875q-3.859375 0 -6.828125 2.890625q-2.96875 2.875 -2.96875 6.734375l0 18.09375z" fill-rule="nonzero"></path></g></svg>

