<?xml version="1.0" standalone="yes"?>

<svg version="1.1" viewBox="0.0 0.0 418.4225721784777 161.75590551181102" fill="none" stroke="none" stroke-linecap="square" stroke-miterlimit="10" xmlns="http://www.w3.org/2000/svg" xmlns:xlink="http://www.w3.org/1999/xlink"><clipPath id="p.0"><path d="m0 0l418.42258 0l0 161.7559l-418.42258 0l0 -161.7559z" clip-rule="nonzero"></path></clipPath><g clip-path="url(#p.0)"><path fill="#000000" fill-opacity="0.0" d="m0 0l418.42258 0l0 161.7559l-418.42258 0z" fill-rule="nonzero"></path><path fill="#000000" fill-opacity="0.0" d="m1.5774279 2.207349l418.4252 0l0 154.51968l-418.4252 0z" fill-rule="nonzero"></path><path fill="#111111" d="m84.30703 34.132343l0 5.5625q-5.625 0 -8.375 2.71875q-2.75 2.703125 -2.75 6.890625l0 19.390629l11.203125 0l0 5.546875l-11.203125 0l0 13.765625l-5.875 0l0 -38.70313q0 -6.609375 4.5 -10.890625q4.5 -4.28125 12.5 -4.28125zm42.394363 14.5625l0 39.312504l-5.875 0l0.484375 -5.546875q0.203125 0.65625 -4.6875 3.546875q-4.890625 2.875 -10.453125 2.875q-8.53125 0 -14.625 -6.03125q-6.078125 -6.046875 -6.078125 -14.5q0 -8.453129 6.078125 -14.484379q6.09375 -6.046875 14.625 -6.046875q5.5625 0 10.671875 2.96875q5.109375 2.96875 4.6875 3.765625l-0.703125 -5.859375l5.875 0zm-35.359375 19.734379q0 6.03125 4.4375 10.46875q4.4375 4.4375 10.5 4.4375q6.0625 0 10.375 -4.421875q4.328125 -4.4375 4.328125 -10.515625q0 -6.093754 -4.359375 -10.562504q-4.359375 -4.46875 -10.390625 -4.46875q-6.015625 0 -10.453125 4.515625q-4.4375 4.5 -4.4375 10.546879zm41.64495 19.578125l0 -63.3125l5.875 0l-0.515625 29.562498q-0.25 -0.6875 4.765625 -3.5625q5.015625 -2.875 10.421875 -2.875q8.59375 0 14.640625 6.046875q6.046875 6.03125 6.046875 14.484379q0 8.453125 -6.046875 14.5q-6.046875 6.03125 -14.640625 6.03125q-5.25 0 -10.203125 -2.8125q-4.953125 -2.828125 -4.84375 -3.421875l0.375 5.359375l-5.875 0zm5.71875 -19.578125q0 6.03125 4.4375 10.46875q4.4375 4.4375 10.5 4.4375q6.0625 0 10.375 -4.421875q4.328125 -4.4375 4.328125 -10.515625q0 -6.093754 -4.359375 -10.562504q-4.359375 -4.46875 -10.390625 -4.46875q-6.015625 0 -10.453125 4.515625q-4.4375 4.5 -4.4375 10.546879zm64.16058 -9.218754q-5.875 -5.84375 -9.421875 -5.84375q-3.546875 0 -6.3125 2.71875q-2.75 2.71875 -2.75 6.265625l0 25.656254l-5.875 0l0 -39.312504l5.875 0l-0.890625 3.9375q-0.5625 -0.828125 2.875 -2.8125q3.4375 -2.0 7.6875 -2.0q4.265625 0 8.8125 3.390625l0 8.0zm10.402481 -10.4375l0 39.23438l-5.875 0l0 -39.23438l5.875 0zm-2.953125 -5.484375q-3.96875 0 -3.96875 -3.8125q0 -3.828125 3.96875 -3.828125q3.984375 0 3.984375 3.828125q0 3.8125 -3.984375 3.8125z" fill-rule="nonzero"></path><path fill="#ff4136" d="m252.6494 88.88235l-0.890625 0q-8.703125 0 -16.203125 -4.546875q-7.484375 -4.5625 -11.828125 -12.09375q-4.34375 -7.53125 -4.34375 -16.046879q0 -13.40625 9.6875 -23.046875q9.6875 -9.656248 23.171875 -9.656248q9.01561 0 17.906235 5.1875l0 7.031248q-9.703125 -6.578123 -17.906235 -6.578123q-11.0625 0 -18.984375 7.953123q-7.921875 7.953125 -7.921875 19.0625q0 11.109379 7.921875 19.109379q7.921875 8.0 18.984375 8.0q8.20311 0 17.906235 -6.59375l0 7.015625q-8.46875 5.203125 -17.499985 5.203125z" fill-rule="nonzero"></path><path fill="#111111" d="m315.66122 48.694843l0 39.312504l-5.875 0l0.484375 -5.546875q0.203125 0.65625 -4.6875 3.546875q-4.890625 2.875 -10.453125 2.875q-8.53125 0 -14.625 -6.03125q-6.078125 -6.046875 -6.078125 -14.5q0 -8.453129 6.078125 -14.484379q6.09375 -6.046875 14.625 -6.046875q5.5625 0 10.671875 2.96875q5.109375 2.96875 4.6875 3.765625l-0.703125 -5.859375l5.875 0zm-35.359375 19.734379q0 6.03125 4.4375 10.46875q4.4375 4.4375 10.5 4.4375q6.0625 0 10.375 -4.421875q4.328125 -4.4375 4.328125 -10.515625q0 -6.093754 -4.359375 -10.562504q-4.359375 -4.46875 -10.390625 -4.46875q-6.015625 0 -10.453125 4.515625q-4.4375 4.5 -4.4375 10.546879zm47.51996 19.578125l-5.875 0l0 -39.312504l5.875 0l0 1.921875q1.390625 -2.796875 12.265625 -2.796875q7.40625 0 12.453125 5.140625q5.046875 5.125 5.046875 12.437504l0 22.609375l-5.875 0l0 -22.609375q0 -4.875004 -3.40625 -8.453129q-3.40625 -3.578125 -8.234375 -3.578125q-4.828125 0 -8.546875 3.609375q-3.703125 3.59375 -3.703125 8.421879l0 22.609375z" fill-rule="nonzero"></path><path fill="#111111" d="m83.77744 131.32547l-8.65625 -20.078125l1.984375 0l6.796875 15.71875l2.78125 -6.53125l-3.9375 -9.1875l1.953125 0l3.015625 7.125l3.109375 -7.125l1.765625 0l-3.96875 9.15625l2.859375 6.65625l6.953125 -15.8125l1.734375 0l-8.75 20.0625l-3.828125 -8.78125l-3.8125 8.796875zm18.88005 -1.078125l-1.765625 0l0 -18.96875l1.765625 0l0 7.6875q0.390625 -0.78125 3.65625 -0.78125q2.21875 0 3.75 1.546875q1.53125 1.53125 1.53125 3.734375l0 6.78125l-1.765625 0l0 -6.78125q0 -1.484375 -1.046875 -2.546875q-1.03125 -1.0625 -2.484375 -1.0625q-1.4375 0 -2.546875 1.078125q-1.09375 1.078125 -1.09375 2.53125l0 6.78125zm16.476593 0.28125l-0.21875 0q-2.484375 0 -4.328125 -1.859375q-1.84375 -1.859375 -1.84375 -4.34375q0 -2.484375 1.828125 -4.296875q1.828125 -1.828125 4.515625 -1.828125q2.6875 0 4.9375 2.484375l-7.484375 7.390625q0.984375 0.78125 2.265625 0.78125q1.28125 0 2.3125 -0.59375q1.046875 -0.59375 2.640625 -2.953125l0 3.046875q-1.984375 2.171875 -4.625 2.171875zm-0.25 -10.65625q-1.703125 0 -3.03125 1.328125q-1.328125 1.328125 -1.328125 3.0625q0 1.71875 0.796875 2.609375l6.21875 -6.171875q-0.9375 -0.828125 -2.65625 -0.828125zm7.989334 10.375l-1.765625 0l0 -11.796875l1.765625 0l0 0.578125q0.421875 -0.84375 3.6874924 -0.84375q2.21875 0 3.734375 1.546875q1.515625 1.53125 1.515625 3.734375l0 6.78125l-1.765625 0l0 -6.78125q0 -1.453125 -1.03125 -2.53125q-1.015625 -1.078125 -2.46875 -1.078125q-1.4375 0 -2.5624924 1.09375q-1.109375 1.078125 -1.109375 2.515625l0 6.78125zm24.72593 0.265625q-2.515625 0 -4.3125 -1.859375q-1.796875 -1.875 -1.796875 -4.359375q0 -2.484375 1.828125 -4.296875q1.828125 -1.8125 4.390625 -1.8125q2.5625 0 4.375 1.8125q1.828125 1.8125 1.828125 4.3125q0 2.5 -1.78125 4.359375q-1.765625 1.84375 -4.3125 1.84375l-0.21875 0zm4.546875 -6.15625q0 -1.828125 -1.3125 -3.15625q-1.296875 -1.34375 -3.109375 -1.34375q-1.8125 0 -3.140625 1.359375q-1.328125 1.34375 -1.328125 3.15625q0 1.8125 1.328125 3.140625q1.328125 1.328125 3.140625 1.328125q1.828125 0 3.125 -1.328125q1.296875 -1.328125 1.296875 -3.15625zm7.900833 4.359375l0 1.671875q-2.40625 0 -3.75 -1.28125q-1.34375 -1.28125 -1.34375 -3.265625l0 -11.734375l1.765625 0l0 4.359375l3.3125 0l0 1.671875l-3.3125 0l0 5.703125q0 1.25 0.8125 2.0625q0.828125 0.8125 2.515625 0.8125zm2.6902313 1.53125l-1.765625 0l0 -18.96875l1.765625 0l0 7.6875q0.390625 -0.78125 3.65625 -0.78125q2.21875 0 3.75 1.546875q1.53125 1.53125 1.53125 3.734375l0 6.78125l-1.765625 0l0 -6.78125q0 -1.484375 -1.046875 -2.546875q-1.03125 -1.0625 -2.484375 -1.0625q-1.4375 0 -2.546875 1.078125q-1.09375 1.078125 -1.09375 2.53125l0 6.78125zm16.476593 0.28125l-0.21875 0q-2.484375 0 -4.328125 -1.859375q-1.84375 -1.859375 -1.84375 -4.34375q0 -2.484375 1.828125 -4.296875q1.828125 -1.828125 4.515625 -1.828125q2.6875 0 4.9375 2.484375l-7.484375 7.390625q0.984375 0.78125 2.265625 0.78125q1.28125 0 2.3125 -0.59375q1.046875 -0.59375 2.640625 -2.953125l0 3.046875q-1.984375 2.171875 -4.625 2.171875zm-0.25 -10.65625q-1.703125 0 -3.03125 1.328125q-1.328125 1.328125 -1.328125 3.0625q0 1.71875 0.796875 2.609375l6.21875 -6.171875q-0.9375 -0.828125 -2.65625 -0.828125zm13.536209 1.734375q-1.75 -1.75 -2.828125 -1.75q-1.0625 0 -1.890625 0.8125q-0.828125 0.8125 -0.828125 1.875l0 7.703125l-1.765625 0l0 -11.796875l1.765625 0l-0.265625 1.171875q-0.171875 -0.25 0.859375 -0.84375q1.03125 -0.59375 2.3125 -0.59375q1.28125 0 2.640625 1.015625l0 2.40625zm3.8988495 -1.78125q-0.4375 0 -0.765625 0.28125q-0.328125 0.28125 -0.328125 0.65625q0 0.359375 0.4375 0.78125q0.4375 0.40625 1.171875 0.8125q0.734375 0.40625 1.546875 0.921875q0.828125 0.5 1.4375 1.359375q0.625 0.84375 0.625 1.96875q0 1.625 -1.21875 2.765625q-1.21875 1.140625 -2.9375 1.140625q-1.078125 0 -2.03125 -0.484375q-0.9375 -0.484375 -1.46875 -1.421875l0 -3.578125q1.75 3.8125 3.4375 3.8125q1.046875 0 1.734375 -0.625q0.703125 -0.625 0.703125 -1.375q0 -0.75 -0.453125 -1.296875q-0.453125 -0.546875 -1.1875 -0.96875q-0.71875 -0.4375 -1.515625 -0.90625q-0.796875 -0.46875 -1.421875 -1.203125q-0.625 -0.734375 -0.625 -1.796875q0 -1.0625 0.84375 -1.78125q0.84375 -0.734375 2.125 -0.734375q1.28125 0 2.328125 1.15625l0 2.828125q-1.53125 -2.3125 -2.4375 -2.3125zm19.53096 10.734375l-0.21875 0q-2.515625 0 -4.3125 -1.84375q-1.796875 -1.859375 -1.796875 -4.359375q0 -2.5 1.828125 -4.3125q1.828125 -1.8125 4.484375 -1.8125q2.65625 0 4.671875 2.140625l0 3.0625q-1.59375 -2.359375 -2.625 -2.9375q-1.03125 -0.59375 -2.15625 -0.59375q-1.78125 0 -3.109375 1.328125q-1.328125 1.328125 -1.328125 3.171875q0 1.828125 1.328125 3.15625q1.328125 1.328125 3.109375 1.328125q1.125 0 2.15625 -0.578125q1.03125 -0.59375 2.625 -3.0l0 3.09375q-1.96875 2.15625 -4.65625 2.15625zm17.47084 -12.109375l0 11.796875l-1.765625 0l0.140625 -1.65625q0.078125 0.203125 -1.390625 1.0625q-1.46875 0.859375 -3.15625 0.859375q-2.546875 0 -4.375 -1.8125q-1.828125 -1.828125 -1.828125 -4.359375q0 -2.53125 1.828125 -4.34375q1.828125 -1.8125 4.375 -1.8125q1.6875 0 3.203125 0.890625q1.53125 0.890625 1.40625 1.125l-0.203125 -1.75l1.765625 0zm-10.609375 5.921875q0 1.8125 1.328125 3.140625q1.328125 1.328125 3.140625 1.328125q1.828125 0 3.125 -1.328125q1.296875 -1.328125 1.296875 -3.15625q0 -1.828125 -1.3125 -3.15625q-1.296875 -1.34375 -3.109375 -1.34375q-1.8125 0 -3.140625 1.359375q-1.328125 1.34375 -1.328125 3.15625zm14.24971 5.875l-1.765625 0l0 -11.796875l1.765625 0l0 0.578125q0.421875 -0.84375 3.6875 -0.84375q2.21875 0 3.734375 1.546875q1.515625 1.53125 1.515625 3.734375l0 6.78125l-1.765625 0l0 -6.78125q0 -1.453125 -1.03125 -2.53125q-1.015625 -1.078125 -2.46875 -1.078125q-1.4375 0 -2.5625 1.09375q-1.109375 1.078125 -1.109375 2.515625l0 6.78125zm11.169708 -15.171875l0 -5.265625l1.796875 0l0 5.265625l-1.796875 0zm8.891968 13.640625l0 1.671875q-2.40625 0 -3.7499695 -1.28125q-1.34375 -1.28125 -1.34375 -3.265625l0 -11.734375l1.7655945 0l0 4.359375l3.3125 0l0 1.671875l-3.3125 0l0 5.703125q0 1.25 0.8125 2.0625q0.828125 0.8125 2.515625 0.8125zm1.0652466 3.046875l0 -1.34375q-0.734375 0 -0.734375 -1.234375q0 -1.25 1.328125 -1.25q1.328125 0 1.328125 1.234375q0 0.265625 -0.109375 0.578125l-0.875 2.015625l-0.9375 0zm10.470337 -13.3125l1.890625 0l4.125 8.75l1.546875 -3.21875l-2.5625 -5.484375l1.875 0l1.609375 3.5625l1.6875 -3.609375l1.8125 0l-2.59375 5.53125l1.53125 3.265625l4.078125 -8.78125l1.78125 0l-5.890625 12.734375l-2.453125 -5.265625l-2.46875 5.25l-5.96875 -12.734375zm23.447205 12.078125l-0.21875 0q-2.484375 0 -4.328125 -1.859375q-1.84375 -1.859375 -1.84375 -4.34375q0 -2.484375 1.828125 -4.296875q1.828125 -1.828125 4.515625 -1.828125q2.6875 0 4.9375 2.484375l-7.484375 7.390625q0.984375 0.78125 2.265625 0.78125q1.28125 0 2.3125 -0.59375q1.046875 -0.59375 2.640625 -2.953125l0 3.046875q-1.984375 2.171875 -4.625 2.171875zm-0.25 -10.65625q-1.703125 0 -3.03125 1.328125q-1.328125 1.328125 -1.328125 3.0625q0 1.71875 0.796875 2.609375l6.21875 -6.171875q-0.9375 -0.828125 -2.65625 -0.828125zm20.358063 10.6875l-0.21875 0q-2.515625 0 -4.3125 -1.84375q-1.796875 -1.859375 -1.796875 -4.359375q0 -2.5 1.828125 -4.3125q1.828125 -1.8125 4.484375 -1.8125q2.65625 0 4.671875 2.140625l0 3.0625q-1.59375 -2.359375 -2.625 -2.9375q-1.03125 -0.59375 -2.15625 -0.59375q-1.78125 0 -3.109375 1.328125q-1.328125 1.328125 -1.328125 3.171875q0 1.828125 1.328125 3.15625q1.328125 1.328125 3.109375 1.328125q1.125 0 2.15625 -0.578125q1.03125 -0.59375 2.625 -3.0l0 3.09375q-1.96875 2.15625 -4.65625 2.15625zm17.470856 -12.109375l0 11.796875l-1.765625 0l0.140625 -1.65625q0.078125 0.203125 -1.390625 1.0625q-1.46875 0.859375 -3.15625 0.859375q-2.546875 0 -4.375 -1.8125q-1.828125 -1.828125 -1.828125 -4.359375q0 -2.53125 1.828125 -4.34375q1.828125 -1.8125 4.375 -1.8125q1.6875 0 3.203125 0.890625q1.53125 0.890625 1.40625 1.125l-0.203125 -1.75l1.765625 0zm-10.609375 5.921875q0 1.8125 1.328125 3.140625q1.328125 1.328125 3.140625 1.328125q1.828125 0 3.125 -1.328125q1.296875 -1.328125 1.296875 -3.15625q0 -1.828125 -1.3125 -3.15625q-1.296875 -1.34375 -3.109375 -1.34375q-1.8125 0 -3.140625 1.359375q-1.328125 1.34375 -1.328125 3.15625zm14.249695 5.875l-1.765625 0l0 -11.796875l1.765625 0l0 0.578125q0.421875 -0.84375 3.6875 -0.84375q2.21875 0 3.734375 1.546875q1.515625 1.53125 1.515625 3.734375l0 6.78125l-1.765625 0l0 -6.78125q0 -1.453125 -1.03125 -2.53125q-1.015625 -1.078125 -2.46875 -1.078125q-1.4375 0 -2.5625 1.09375q-1.109375 1.078125 -1.109375 2.515625l0 6.78125z" fill-rule="nonzero"></path></g></svg>

